<svg xmlns="http://www.w3.org/2000/svg" viewBox="0 0 548.6 925.3"><style>.w{fill:#fff}.g1{fill:#aaa}.g2{fill:#e1e1e1}.b{fill:#000}.r{fill:#ba1f27}.ge1{fill:#dfe4be}.ge2{fill:#b7bd98}.ge3{fill:#959e75}</style><path class="g1" d="M110.7 237.4c-18.8 17.4-42.8 58.2-57.3 85-15 28-32.4 66.8-32.4 66.8s-3.5 57.7-4 73.5c-1 25.2 3.5 100.8 3.5 100.8S52.2 669 102 723.3c49.4 54.2 31 118 31 118l-6.4 76.4s60.2-17.2 75.6-49c15.4-31.6 7-86.4 7-86.4l-3.4-25 8.3-5s63.4 68 120.5 42.3c57-25.8 23.8-89.2 23.8-89.2l-76.7 4.2-64.3-31-11.3-92s27-81.5 64-105.3c37-23.8 50.3-15.8 50.3-15.8l29.7-54.7s129-91.5 122.5-145c-6.6-53.4-56.5-95.5-56.5-95.5S383.8 150 371.6 148c-33.4-5.4-134 18.8-134 18.8l-61.5 30s-51 27.7-65.2 40.7"/><path class="g2" d="M94 605l10 10-1 13-8-5zm-12-45l20 5 2 20-10 5-10-5zm30-224l5-25 20-15 17 6-3 30-20 10zm68-38l1-15 10-10 6 6-4 17zm193 23l20 1-3 15h-20z"/><path class="r" d="M234 110l123-29 10 27-125 32z"/><path class="b" d="M246.4 86.5c-1-1-1.5-1.8-2-2.6-.6.6-1.4 1.4-1.4 2 0 1 .7 1.8 1.2 2.7l2-2.2zM307 457.3l-7.3 6.7c3.6 1 5-.2 7.5-6.6zm-63.7-313.8c-1.4-2.4-3-2.8-4.8-1.8-4 2.4-8.2 4.8-12.2 7.4-1 .7-1.6 2-2 3.3-.3.5 0 1.4.4 1.8.3.4 1.2.4 1.6 0l17-10.4zM392 323c-3 0-5 .2-7.7 0-2.8 0-7 0-9.7-.7l-2.7 9c-.3.5 0 1.5.3 1.8 1.7 1 3.4 2.7 5.3 3 6 1.3 14.4-4.6 14.4-13zm-54 108.3c-.3 0-.5-.3-.7-.4l-1.8 1.2-12.6 10.5c-5.3 4.2-7 11.3-4 18 4-2.3 6.7-5.4 8.7-9.4 2.3-4.7 5-9.2 7.6-14 1-2 1.7-4 2.6-6zM250 134l4.2-.7c10.4-2.2 20.8-4 31-6.6 15.6-3.8 31-7.8 46.5-12 9.6-2.5 19-5.5 28.6-8.4 3.3-1 3.7-2 2.4-5L358.3 91c-1-2.4-2-4.5-3.6-6.3-.7-.8-3-1.3-3.8-.8-5.5 3-12 2-17.3 6-23.8 6.5-47.5 13-71.2 19.7-7.2 2-14.4 3-21.8 2.2-2.8-.4-3.4.3-2.8 3l3 16c0 1 1 2 2 2 2 .7 4.5.8 7 1zm107 600.6c-1 0-1 0-1 .2-.7.3-1 .7-1.5 1-9 9-19.7 15-32.6 16-8.6 1-23-.8-32-2-12-4.3-13.8-7-8.4-8 9.5-1.8 25.3.5 35-.4 15.4-1.4 27.6-8.5 37.5-20.2 1.6-1.7 1-7.3-1-10-1.6-2-18.2 2.4-23.6 2.8-9 1.2-53.5 3.8-75.5-8.6-31.8-13.3-46-36.5-52.4-60.2-3.5-22.8-3.7-48 .5-63.3 3.5-12.3 11-40 19-51 10.3-17 36-46 50-60 4-4.2 16-15 20.4-19.2 16.5-15.8 33.5-29.3 64-53.4 23-18 42.2-30 60.5-46 18-19.3 22.5-26.6 27-38.4.4-1-1.5-4.5-2.3-5.2-3-3-6-4.8-10.3-6-5.8-1.6-12.8-2.2-15.8-2-1 0-2.2.6-2.8 1.3-6.2 8.3-10.7 17.3-12.6 27.6-.8 5-3 9.8-4.7 14.6-1 2.7-3.2 3.7-6.2 3.7-7.7 0-14.6-3-21-7.3-1-.6-2-1-3.2-1-4.3.2-9 1.2-13.2 1-17.7-1.2-24.8-13.6-20.3-30.5.6-2.3 1.8-4.7 4.7-4.8 2.7 0 3 2.5 4 4.4.3.5.3 1.2.6 2 1.7 4.2 1 7.3 3.2 11.4 1.7 3.4 7.4 5.3 11 5 3.2 0 4.6-2.2 5.8-4.8 1.8-4 2-8 1.4-12-.2-1-1-2.4-1.7-3-2.7-2.4-5.5-4.5-8.3-6.8-1.8-1.5-2.3-3.4-1.4-5.6 1-2.3 2.6-2.4 4.6-2 2 .5 4.3.8 6.4 1.5 2.2.7 3.4.4 3.8-2 .4-2.2 1-4.5 1.7-6.6.6-1.3 1.3-2.7 3-3 2.5 0 3 2 3 3.2.5 3 .2 6 0 9.2-.7 6 2 6 6.3 9.2 4.7 2.4 9 3 13.7 3 2.6 0 4-1.2 4.3-3.6.2-1 .3-2.3.2-3.5 0-5.4-.4-10.7-.4-16 0-4.4 3.3-6.6 7.5-5.4 3.2 1 4.5 3.8 5.2 6.8l.8 5.3c7.2 0 14-1 20.5.4 6.4 1.4 12.2 5.5 18.3 8.4l.5-1c6.2-14 9-28 8-43.2-1.5-18.7-7-35.8-18-51.2-6.8-9.7-22.2-30-48.4-39-28-6.4-48.3-4-52.4-2.7-31.7 8.7-63.5 17.7-95.3 26.5-4.6 1.4-9.3 2.2-14 3-1 .3-5.5-2.6-6.3-3.3-3.2-2.7-29.3 5.4-55.6 21-33.4 19.6-48 37-62 53C78 295 78 295 57 333c-16 29.4-20 45.7-26.7 82-6 32.4-4.7 33-5.3 59.5C24 510 27.4 546 35 581c12 38 20 55 31 72.6 8.4 13.3 22.5 33 40.5 58 29.7 36 29.7 36 37.3 47.5 7 10.8 8 15.5 8.3 23.3.4 8-2.7 37.3-4 43.7-3.5 21.4-5.7 40.8-9.6 62.2-.6 4-1 8-1.2 12 0 3.5 1 4.2 4.2 2.7 6.3-3 9.2-3 10.7-9 2.8-11.4 5-28 6.8-39.5 1-6 1-12.3 2-18.4 0-1.3 1.8-3.2 3-3.4 2.2-.4 3 1.7 3.2 3.5.4 3.6.7 7 .8 10.5.3 11.7-1.2 23.2-3.6 34.7-.7 3.3-2 6.8-.2 9.5 1.2.5 9.3-3.6 17.2-9.7 5-3.6 10.2-8.4 13.3-11.3.8-.7.6-2.6.5-3.6l-4-35.7c-.4-2.7-1-5.3-1-8-.2-.6.5-1.3.8-2 .6.3 1.3.5 1.8 1 .6.4 1 1 1.2 1.6 4.5 8 6.4 17 7.8 25.7l.6 4.2c1-1 1.2-2 1.5-3 5.3-16.3 5-33 2.7-50-1-7.3-2.5-15-5-22-3-9-3-17.2 2.5-25.2 2.7-4 5.7-4.8 10.4-4 2.8.5 5 2.4 7 3.6 3.3 1.8 5 4.2 8 6.4 8 5.7 15 12.3 23.4 17 17.4 9.8 36.3 14.3 56.3 12.8 8-.6 26.8-5.4 33.3-9.4-12.3 1.8-32 2.3-44-2.6 0 0-13.4-5.2-11-6.2 8.8-3.4 30.8 1.4 36.6.4 8-1.5 16.2-2.4 23.5-6.5 5.7-3.2 11.2-6.8 9.7-15-.2-1 0-2 0-3.2v-12zm-141 24c-6.6-1.7-7.8.3-8 5 0 7 2 10.7 3.6 17 6 20.6 7 41.5 3.3 62.6-1 5.3-3 10.3-4.5 15.5-1.7 6.4-4 10.3-7.6 16-1.5 2-7.4 11.4-9 13-10 9-20 17.8-32 23.7-1.6.8-24.7 11.8-31 13.3-10.6 2.7-12.5-3.6-14-9.8-2-10.8-.4-27.6.8-38.3 1.6-15.2 5.4-34.4 5.7-49.7.3-19.5 6-47.2-14.2-72.2-13.4-16-22.5-29.3-35.2-47-10.6-17-30.5-39-49-84.2-6.6-18.4-16-43.8-19.7-68.8-3.7-24-5.3-48-5.3-72.2-.2-21 7.7-82.6 15-103.5 6-20 17.3-44.7 22.8-55 11.3-21 26.8-47 41.7-66 15.7-18.2 33.3-37.3 61.8-57.6 23-16.4 51-31 61.2-36 1-.3 1-.4 2.4-1-4-5.2-2-8-.5-12 3.3-5.2 6.5-5 10-6.5 5-2.4 10.2-4 15.4-6 5.2-2 6.3-3.8 5-9-1-4-1.4-8-2.4-12-1.7-6.8-3.3-13.7-5.7-20-6-16-12.7-31.6-18.5-47.6-1.4-4-.5-8.6-.6-13 0-.6 1-1.3 1.4-1.7 14-8.3 28.6-16 44.3-20.5 13-3.6 26-6 39.2-9 8-1.8 16-3.3 24.2-5 4.3-1 8.6-2 13-.2.3.2 1 0 1.3-.2 2.6-.7 4.3.5 5.3 2.7 1 2.3 2 4.8 2.8 7.2l25.5 71c2.5 6.8 4.4 13.5 6.7 20.2 1.3 4 4.3 6 8.8 5.3 7-1 14-2 21-3.2 3.8-.5 6.6.7 8 4.4 3.4 8.6 6.4 17.3 9.6 25.8 1 2.3.3 4-1.5 5.2-3.2 2-6.4 4-9.8 5.6-4.7 2-5.7 2.3-10.5 4-1 .5-6.3 1.4-8 2 5 2 12-1.2 30 10 24.8 15.4 31.2 26.2 40 39 9.2 13.7 12.5 31.3 14.5 53 2 20.3-5 35.4-7.6 46.7-1 4.6-3.6 8.8-5.3 13.2-.5 1-.6 3 0 4 4.2 9 8.4 18 13.4 26.6 5 8.8 12 16.2 21.7 20.2 2.6 1 10.4-.8 12-3 .5-1 .3-2.6 0-4-1-4.6 0-6.8 4.8-7.7 2.4-.4 5-.5 7.4-.7l15.5-1.6c4.6-.6 10.7 0 12 4.3 2.4 7.5.3 15.6 0 23.6 0 3.8-1.8 6.4-5 8-11.4 5.6-23 7.6-36 6.5-11.2-1-20.4-5.2-27.2-13.7-4.4-5.5-7.5-12-11-18.4-4.8-9-9.4-18-14.3-26.8-1.8-3.3-2.5-3-4.4 0-3.6 5.2-4.3 10.4-20.3 26-10.8 10.5-26.6 22.6-38 29.8-12.5 9-37 29-42.6 35-.6.7-.8 2-1 3-1.4 9.7-3.3 19.5-7.3 28.6-2.6 6-8.4 8.6-13 12.3-1.2 1-2.5 1.3-3.6 2.2-3 2.5-6.5 3-9.8.8-2-1.2-3-1.3-4.4.6-4.5 5.8-11 4.5-17 4-2-.3-12.7 6.2-25.5 19.7-13.4 13.7-32 34.8-38.6 50-11.8 29.5-14.8 39.6-17 54.6-3.7 23.4.5 45.5 2.7 54.3 3 12 12 20.7 21.6 30.7 6.3 3.6 15 12.5 35.5 19.6 14 5.3 48 2 70.6-3 19-.4 25 4.3 26.7 10.3 1.6 6 3.3 14 3.5 20 .4 10.2 1 30.6-8.2 43.6-9 15-20 22-27.2 24.2-6 1.8-12 4-18 4.3-23.3 1.4-46-1.4-67.2-12.3-8.3-4.2-15-10.4-22-16.3-3-2.3-7.7-11.2-13.2-13.5m278.4-557.4c-2-1-3.7-3-5.2-2.7-2.5.2-2.6 3-3 5-.7 5 1 9.5 3.5 13.7 2 3.6 14 3.7 15.6 0 1.3-3.2 1.4-7 1.6-10.5 0-.8-1.5-2.2-2.5-2.5-.8-.2-2 .8-3 1.4l-4 3.3c-1.3-5 .4-7.6 4.5-8.5 1-.2 1.7-1 2.6-1.6-1-.7-1.8-1.7-2.8-2-4-.7-6.3 1.5-7.8 4.2zm21 7.3c1 11.3-8.7 18.2-20.4 17.3-5-.5-8.6-2.6-11-6.7-3-5.2-4-11-2.7-17 1.8-8.3 9.7-14.4 18.2-12 2 .7 4.2.6 6.2 1.2 7 2 9.6 8.5 9.6 17m13.8 98l-2.4-2.4c-.7.7-2 1.7-2 2 .5 1 1.5 2 2.3 2.8l2-2.2zm-10.6-2l-.5-1.6c-1 .3-2 .5-2.7 1-.8.8-1.3 2-1.6 3-2 5.7 1.4 11.3 7.5 13 3 .8 6.3-.8 7-3.2.6-2-1-3.5-4.4-4.5-2.6-.8-5.4-4.2-5.2-7.6zm-13.5 5c0-5.7 2.4-9.5 6.2-13.5 4-4 8-4 12.2-2.6 7 2.2 15.5 7 14.7 14.3 0 11-9.7 18.5-18.3 16.8-3-.6-6-1.8-8.6-3-4.7-2.5-6.5-6.7-6.2-11.6m19.7-33.6c5.2 0 8.8-2.7 8.5-6.6-.2-1.2-1.6-3.2-2.3-3.2-2.6 0-4.3-1.2-6-2.5-1.8-1.2-3.6-1.2-5 .4-2.3 3-.8 6 0 9 .8 2.5 2.8 3 4.8 3zm-.3-19.3c8.5 0 14 5 14 12s-5.6 13.2-13.3 13c-7.5 0-12.6-5-12.5-12.4 0-8 4.7-12.8 12-12.7"/><path class="w" d="M285 19.4c-.4.3-1.4 4.7-14.5 7.4-12.8 2.6-21.8 6-31.2 14.3-2.2 2-3.2 8.8-3 11.6l2.2 19.2V75c-.8-1-1.4-1.6-1.5-2.2-2-6-4.4-11.8-5.4-18-1.5-9.3.4-17.3 9.8-23 7.3-4.3 10-5.4 18-8 2-.8 14.4-3 16.6-3.3 0 .3 9-1.5 9-1.2m-41.8 124.2l-17 10.5c-.4.3-1.3.3-1.6 0-.4-.4-.7-1.3-.5-1.8.7-1.2 1.3-2.5 2.3-3.2 4-2.6 8-5 12.2-7.4 1.8-1 3.4-.6 4.8 1.8m3-57l-2 2.2c-.5-1-1.2-1.7-1.3-2.6 0-.7.7-1.4 1.2-2.2l2 2.6M494.6 201c1.4-2.7 3.8-5 7.8-4 1 0 1.8 1 2.7 1.7-.7.4-1.4 1.3-2.4 1.5-4 1-5.8 3.5-4.6 8.4 1.4-1.3 2.7-2.3 4-3.3 1-.6 2.2-1.6 3-1.4 1 .2 2.4 1.6 2.4 2.4-.2 3.5-.3 7.3-1.6 10.4-1.6 3.8-13.6 3.7-15.7 0-2.2-4-4-8.5-3.2-13.5.3-2.2.4-5 3-5.2 1.4 0 3.2 1.7 5 2.8m23.7 104c0 3.4 2.6 7 5.2 7.7 3.5 1 5 2.5 4.4 4.6-.6 2.5-4 4-7 3.3-6-1.6-9.2-7.2-7.4-13 .3-1 1-2.2 1.6-3 .7-.5 1.8-.6 2.7-1l.4 1.6m10.8 2l-2 2.2c-1-1-2-1.7-2.3-2.7-.3-.4 1-1.4 2-2l2.3 2.5m-4.6-30.4c-2 0-4-.5-4.7-3-1-3-2.4-6 0-9 1.3-1.6 3-1.6 4.8-.4 1.8 1.3 3.5 2.7 6 2.5.8 0 2.2 2 2.3 3.2.5 3.7-3 6.5-8.4 6.4"/><path class="b" d="M176 457.2l.3-11.8c.2-6 .2-12 .6-18 0-3 2.5-4.3 5-4.7 1.2-.2 3 1 4.3 2 .4 0 .6.6 1.4 1.7.2-2 0-3.2.4-4.4.7-2.5 2-5 2-7.6.3-1.8-.2-12 2.8-12.4 3.3-.3 3 5.4 3 6.2 1 4 1.7 8.7 1.7 12.8 0 5-1.2 10.2-2.2 15.3-.3 1.6-1.8 3.4-3.3 4.3-2 1-2.4 2.5-2.6 4.4l-1.2 12c-1.3 10.4-11.7 13.6-19.3 11-.6-.3-1-.3-2-.5l-1 3.7c-1.5 5.5-2.6 11.2-4.7 16.6-2 5.4-6.5 8.3-12.5 8.6-12 .6-19.2-6-24.2-15.3l-4.7-8.4c-5.6-10.6-6-22-5.3-33.7.5-6.7.6-13.6 2.4-20 1.7-5.6 5-11 8-16 1-1.6 4-3.2 5.7-3 2.5.8 1.4 3.8 1 5.7-1 6.6-2.8 13-3.4 19.7-1 8.6-1.8 17.4-1 26 1 10.6 3.7 21 11.2 29.6 2 2.3 4.5 4.7 8 4.2 1.3-.2 2.6-1 3.3-2 3-3.6 3-8.2 3.2-12.6l.7-25c0-4.7 2.2-7 6.2-6.4 1.5.2 3.4 1.5 4.3 2.8 1.8 2.6 3 5.6 4.4 8.5 1.4 2.6 3 5.2 7 7m-49.4-121c2.3-.3 4.7-.2 6.7-1 7.4-3.2 12.7-8.6 16-16 3.4-7 1.3-12-4-17.3-2-2.2-4.5-2.3-7.3-1.2-4.7 2-8.8 4.6-12.2 8.3-6 6.3-10.7 13-9.6 22.5 0 2 1 3.4 3 3.7l7.4 1zm32-23c.7 6.3-.7 13.5-4.2 20.4-4 8.2-11.5 11.6-20 13-8.5 1.2-16.3-1.7-23.4-6.3-3-1.8-4.3-4.6-4.5-8-.3-5 1-10 3-14.4 5.8-13 14.4-23 28.5-27 3-1 6.6-.8 10-.4 6 1 10 5.3 10.6 11.4.4 3.2 0 6.5 0 11M85 577c.8 5.7 7 10.4 12.8 9.3.8 0 1.7-.7 2-1.4 2.5-4 3-8.5 1-12-2.4-5-6.5-9.3-13-9.6-2 0-3.2 2.8-3 5 0 1.7 0 6.6.3 8.5zm24.5 1c.5 4.5-.7 8.4-3 12-2 3-4.7 5-8.4 4.7-12-.3-22-6.6-21-20.7.4-4.8 1-9.8 1.7-14.7.3-2.2 3.6-4.7 5.7-4.5 7.5.7 14.3 2.6 19.5 8.8 3.6 4.4 6.4 8.8 5.6 14.4M183 289.4v1.8c.6 1.4.5 3.6 1.5 4 1.8 1.2 3.4-.3 5-1.7 3.6-3.6 4.7-8 4.8-13 0-2-.3-4.2-2.3-4.6-1.5-.3-3.6 1-4.5 2-2.8 3.4-5 7.3-4.3 11.4zm-7 2.6c-.3-5.7 1-11.2 5-15.3 3-2.7 6.5-5 10-6.6 4-1.5 9 3 9.7 8 .8 8.7-1.5 16.3-8 22.5-3 3-10.3 4-13.5 1.4-1.3-1-2.2-3-2.8-5-.5-1.4 0-3 0-4.7m-80 316.5c-1 8.3-.2 16 5 16.6 2.8-5.4 1.3-10.7-5-16.6zm-7.7 6.7c.2-2 .2-4 .5-6 1-6.7 8.2-9.6 13.5-5 5.5 4.7 9 10.6 7.7 18.3-.4 2-1 4.3-1.6 6.3-1.3 4-4 5.5-8 4.5-7-1.6-11.5-6.8-12-14-.2-1.4 0-2.7 0-4h-.2m338.7-358c-.2 2 0 4-.7 5.5-1.5 3.4-3.3 7-5.4 10-.8 1-3 1-4.4 1.6-.2-1.4-1-3.2-.5-4.2 2.7-5 5.2-10 10.2-13 .3 0 .6 0 1 .2m-113.3 87.6c-.5-.2-1.8-.7-2-1.5-.3-.8.3-2 1-2.8.4-1 1.3-1 2-1.7 2.8-1.8 5.5-3.7 8.3-5.3.8-.4 2.5-.5 3 0 .5.6.8 2 .5 3-1.2 3.7-8 8.3-12.7 8.3m-5.2-15.6h-5c-.5-.2-1.4-.7-1.6-1.2-.2-.6.3-1.8.8-2l14.6-4c.4 0 1.6.6 1.6 1 0 .8-.3 2-1 2.5-3 1.7-9.3 4-9.4 3.7m14 29c-.3 0-1.7-.4-2.2-1.2-.3-.5.3-2 1-2.7 2.7-2.6 5.7-5 8.8-7.3 1.3-1 2.6-.6 2.7 1.3.3 3.4-6 10-10 10m108.5-84c-1.6 1.6-3 3.5-5 4.8-1.6 1.2-3.6.5-4.4-1.4-.7-2 1-3 2.6-3.3 2-.7 4.2-1 6.3-1l.4.7M286 119.7l-3.6-10c3-2 3.8-1.8 5.5 1.5l4 8-13.3 4.3c-.5 0-1.7-1-2-2-1.3-2.4-2.3-5-3.3-7.5l-1 .4 3 9.8c-6.5 1.5-12.6 3.2-18.8 4.4-6.2 1.2-6.2 1-8.2-5l-2.5-8c3.6 0 7 .4 10-.2 7-1.4 14.3-3 21.4-5 2.5-.6 3.7 0 4.5 2.3 1 2.6 2 5 3.2 7.5.4 0 .7-.2 1-.4m8-14.7c.3 3.8-1.2 5-3.3 5-.6 0-1-1-1.6-1.3l4.7-3.5"/><circle class="b" cx="290.8" cy="257.9" r="20.6"/><circle class="b" cx="385.2" cy="222.9" r="19"/></svg>