<svg xmlns:svg="http://www.w3.org/2000/svg" xmlns="http://www.w3.org/2000/svg" viewBox="0 0 669 926" height="926" width="669" xml:space="preserve" version="1.1">
<style>.w{fill:#fff}.g1{fill:#aaa}.g2{fill:#e1e1e1}.b{fill:#000}.r{fill:#ba1f27}.ge1{fill:#dfe4be}.ge2{fill:#b7bd98}.ge3{fill:#959e75}</style>
<path class="g1" d="M230.6 237.5c-18.8 17.4-42.8 58.2-57.3 85-15.1 28.1-32.4 66.8-32.4 66.8 0 0-3.4 57.7-4 73.5-1 25.2 3.6 100.8 3.6 100.8 0 0 31.7 105.6 81.4 159.8 49.6 54.2 31.1 118 31.1 118l-6.3 76.4c0 0 60.2-17.2 75.6-48.9 15.4-31.7 7-86.5 7-86.5l-3.4-25.1 8.4-4.9c0 0 63.3 68.1 120.4 42.3 57.1-25.8 23.8-89.2 23.8-89.2l-76.7 4.2-64.3-30.9-11.3-92.1c0 0 27-81.5 64-105.3 36.9-23.8 50.3-15.8 50.3-15.8l29.7-54.7c0 0 128.8-91.4 122.2-144.9-6.6-53.5-56.5-95.6-56.5-95.6 0 0-32.1-20.2-44.3-22.3-33.4-5.5-133.9 18.7-133.9 18.7l-61.7 30.3c0 0-51.2 27.5-65.3 40.5"/>
<path class="g2" d="M214 605l10 10-1 13-8-5zM202 560l20 5 2 20-10 5-10-5zM232 336l5-25 20-15 17 6-3 30-20 10zM300 298l1-15 10-10 6 6-4 17zM493 321l 20 1-3 15-20 0z"/>
<path class="r" d="M354 110l123-29 10 27-125 32z"/>
<path class="b" d="M366.3 86.6c-0.9-1.1-1.5-1.8-2.1-2.6-0.5 0.7-1.3 1.5-1.3 2.2 0.1 0.9 0.8 1.7 1.3 2.6 0.6-0.6 1.2-1.2 2.1-2.2zm60.8 370.8c-2.5 2.2-4.9 4.4-7.5 6.7 3.6 0.8 4.9-0.3 7.5-6.7zm-63.9-313.8c-1.4-2.4-3-2.8-4.8-1.8-4.1 2.4-8.2 4.8-12.2 7.4-1 0.6-1.6 2-2.1 3.2-0.2 0.5 0.1 1.4 0.5 1.8 0.3 0.3 1.2 0.3 1.6 0 5.6-3.4 11.2-7 17-10.5zm148.7 179.4c-2.9 0-4.9 0.3-7.7 0.1-2.8-0.2-6.9-0.2-9.7-0.7-0.8 2.6-2.1 6.4-2.7 8.9-0.2 0.6 0 1.6 0.4 1.9 1.7 1.1 3.4 2.6 5.3 3 6 1.2 14.4-4.7 14.4-13.2zm-54.1 108.4c-0.2-0.1-0.4-0.3-0.6-0.4-0.6 0.4-1.2 0.8-1.8 1.3-4.2 3.5-8.4 7.1-12.6 10.5-5.2 4.2-6.8 11.3-3.9 17.9 3.9-2.2 6.7-5.3 8.7-9.3 2.3-4.7 5.1-9.2 7.6-13.9 1-2 1.7-4.1 2.6-6.1zM369.7 134c1.5-0.2 3-0.3 4.4-0.6 10.3-2.2 20.7-4.1 30.9-6.6 15.6-3.8 31.1-7.8 46.5-11.9 9.6-2.6 19.1-5.6 28.6-8.5 3.2-1 3.6-2 2.3-5-1.4-3.5-2.7-7.1-4.2-10.5-1-2.2-2.1-4.3-3.6-6.1-0.7-0.8-2.9-1.3-3.8-0.8-5.4 2.9-12.1 2.1-17.2 6-23.8 6.6-47.5 13.1-71.2 19.8-7.2 2-14.4 2.9-21.8 2.2-2.8-0.3-3.4 0.4-2.8 3.2 1 5.3 1.9 10.6 3 15.8 0.2 0.9 1.1 2 1.9 2.2 2.3 0.6 4.7 0.7 7.1 1zm107 600.7c-0.7 0.1-0.9 0.1-1 0.2-0.5 0.4-0.9 0.8-1.3 1.2-9.1 8.8-19.7 14.8-32.6 16-8.5 0.8-23-0.9-32.1-2.2-12-4.2-13.6-7-8.2-8 9.5-1.7 25.3 0.6 34.9-0.3 15.5-1.4 27.7-8.5 37.6-20.2 1.5-1.7 1-7.3-1-9.9-1.7-2.1-18.3 2.3-23.7 2.7-9 1.2-53.5 3.8-75.5-8.6-31.7-13.3-46-36.5-52.3-60.2-3.5-22.8-3.7-47.9 0.5-63.3 3.4-12.3 11-40 18.8-50.9 10.4-16.9 36-45.9 49.9-60 4.2-4.3 16.3-15.1 20.6-19.3 16.5-15.7 33.5-29.2 63.9-53.3 23.2-18.1 42.3-30.1 60.6-46 18-19.3 22.6-26.6 27.1-38.4 0.4-1-1.5-4.5-2.3-5.2-3-3-6-4.8-10.3-5.9-5.8-1.7-12.8-2.3-15.8-2.1-1 0.1-2.2 0.6-2.8 1.3-6.2 8.2-10.7 17.2-12.6 27.5-0.9 5-3 9.8-4.8 14.6-1 2.7-3.2 3.7-6.2 3.7-7.8-0.2-14.7-3-21.1-7.3-0.9-0.6-2.1-1.1-3.2-1.1-4.4 0.3-8.9 1.3-13.3 1-17.7-1.1-24.8-13.5-20.3-30.4 0.6-2.3 1.8-4.7 4.7-4.8 2.8-0.1 3.2 2.5 4.1 4.4 0.3 0.6 0.3 1.3 0.6 2 1.7 4.3 1 7.4 3.2 11.5 1.7 3.4 7.4 5.3 11 5.1 3.2-0.2 4.6-2.3 5.8-4.9 1.8-3.9 2-7.9 1.4-12-0.2-1.1-0.9-2.4-1.7-3.1-2.7-2.3-5.5-4.4-8.3-6.7-1.8-1.5-2.3-3.4-1.4-5.6 0.9-2.3 2.6-2.4 4.6-2 2.1 0.5 4.3 0.8 6.4 1.5 2.2 0.7 3.4 0.4 3.8-2 0.4-2.2 0.9-4.5 1.7-6.6 0.5-1.3 1.2-2.7 3-3.2 2.4 0.3 2.8 2.2 3 3.4 0.4 3 0.1 6.1-0.2 9.2-0.6 5.9 2 6 6.4 9.2 4.7 2.4 8.9 3 13.7 3 2.6 0 3.9-1.2 4.3-3.6 0.2-1.2 0.3-2.4 0.2-3.6-0.1-5.4-0.4-10.7-0.4-16.1 0-4.3 3.2-6.5 7.4-5.3 3.3 1 4.6 3.6 5.3 6.6 0.4 2 0.6 4 0.8 5.3 7.2 0 14.1-1.1 20.5 0.3 6.3 1.4 12.1 5.5 18.2 8.4 0.1-0.2 0.4-0.6 0.5-1 6.2-14 9.1-28.1 7.9-43.2-1.4-18.7-6.9-35.8-17.8-51.2-6.9-9.7-22.3-30.1-48.5-39-28-6.4-48.2-3.9-52.3-2.7-31.8 8.7-63.6 17.7-95.4 26.5-4.6 1.3-9.3 2.1-13.9 3-1 0.2-5.6-2.7-6.4-3.4-3.2-2.6-29.3 5.5-55.6 21-33.4 19.7-48 36.9-62.1 53.1-27.2 31.2-27.2 31.2-48.3 68.9-16 29.5-20 45.8-26.7 82-6.1 32.5-4.7 32.9-5.3 59.6-0.9 35.4 2.4 71.4 10.1 106.6 12.3 38.3 20.4 55.3 31.3 72.9 8.3 13.3 22.4 32.9 40.4 57.9 29.7 36.2 29.7 36.2 37.3 47.6 7.1 10.7 8.1 15.4 8.3 23.2 0.3 7.9-2.8 37.3-3.9 43.7-3.7 21.4-5.9 40.8-9.8 62.2-0.7 4-1.1 8.1-1.3 12.1-0.1 3.4 1.1 4.1 4.2 2.6 6.3-2.9 9.2-3.2 10.7-9.2 2.7-11.2 4.9-27.9 6.7-39.3 1-6.1 1-12.3 1.9-18.4 0.2-1.4 1.9-3.3 3.2-3.5 2.1-0.4 2.9 1.7 3.1 3.5 0.4 3.5 0.7 6.9 0.8 10.4 0.3 11.7-1.2 23.2-3.6 34.7-0.7 3.3-2 6.8-0.2 9.5 1.2 0.5 9.3-3.6 17.2-9.7 4.9-3.7 10.2-8.5 13.3-11.4 0.7-0.7 0.5-2.6 0.4-3.6-1.3-12-2.7-23.9-4.1-35.9-0.3-2.7-0.8-5.3-1-8-0.1-0.6 0.6-1.3 0.9-2 0.6 0.3 1.3 0.5 1.8 0.9 0.5 0.5 0.8 1.1 1.1 1.7 4.5 8 6.4 16.9 7.8 25.8 0.2 1.4 0.4 2.8 0.6 4.2 0.9-0.9 1.2-1.9 1.5-2.8 5.2-16.4 5-33.2 2.6-49.9-1-7.5-2.5-15-4.9-22.1-3-9-3.1-17.3 2.4-25.3 2.8-4.1 5.8-4.8 10.5-4 2.8 0.5 5.1 2.4 7.1 3.6 3.2 1.8 5 4.2 8 6.4 7.8 5.7 15 12.3 23.3 17 17.3 9.8 36.2 14.3 56.2 12.8 7.8-0.6 26.7-5.4 33.2-9.4-12.3 1.7-31.9 2.2-44-2.7 0 0-13.4-5.2-10.9-6.2 8.7-3.4 30.7 1.4 36.5 0.4 8-1.5 16.2-2.4 23.5-6.5 5.7-3.3 11.2-6.9 9.7-15-0.2-1.1 0-2.2 0-3.3 0-3.9 0-7.9 0-11.9zm-140.9 24.1c-6.5-1.8-7.7 0.2-8 5 0.1 6.9 1.9 10.6 3.7 16.9 5.9 20.6 7 41.5 3.3 62.6-0.9 5.3-3 10.3-4.4 15.5-1.7 6.4-4.1 10.3-7.6 15.9-1.4 2.2-7.3 11.5-9.1 13.1-9.8 9-19.9 17.8-31.7 23.7-1.7 0.8-24.8 11.8-31 13.3-10.7 2.7-12.6-3.6-13.9-9.8-2.3-10.7-0.6-27.5 0.6-38.2 1.6-15.2 5.4-34.4 5.7-49.7 0.3-19.6 6-47.3-14.2-72.3-13.4-16-22.5-29.3-35.2-47.1-10.7-17-30.6-38.9-48.9-84.1-6.8-18.4-16.1-43.8-19.9-68.8-3.7-23.9-5.3-48-5.3-72.2-0.1-20.9 7.8-82.6 15-103.5 6.2-20.3 17.4-44.9 22.9-55.2 11.3-21.1 26.8-47.1 41.7-65.9 15.7-18.3 33.3-37.4 61.8-57.7 22.9-16.4 50.9-31.1 61.2-35.9 0.9-0.4 1-0.5 2.4-1.2-3.8-5.1-2-7.8-0.3-11.8 3.3-5.3 6.5-5 10.1-6.6 5-2.3 10.1-4.1 15.3-5.9 5.3-1.9 6.4-3.8 5.1-9.2-0.9-4-1.4-8-2.4-11.9-1.7-6.7-3.3-13.6-5.7-20-6-15.9-12.6-31.5-18.4-47.5-1.4-3.9-0.5-8.6-0.6-13 0-0.6 0.9-1.3 1.5-1.7 14.1-8.3 28.6-16 44.3-20.5 12.9-3.7 26.1-6.2 39.2-9.1 8.1-1.8 16.2-3.3 24.3-5 4.3-0.9 8.6-1.9 12.9-0.2 0.4 0.2 1-0.1 1.4-0.2 2.6-0.7 4.3 0.5 5.3 2.7 1.1 2.3 2 4.8 2.9 7.2 8.5 23.7 17.1 47.3 25.5 71.1 2.4 6.7 4.3 13.4 6.6 20.1 1.4 4.2 4.4 6 8.9 5.4 7-1 13.9-2.2 20.9-3.3 3.9-0.6 6.7 0.6 8.2 4.3 3.3 8.5 6.3 17.2 9.5 25.7 0.9 2.3 0.2 4-1.6 5.2-3.2 2-6.4 4.1-9.8 5.6-4.7 2.1-5.7 2.3-10.5 4.1-1.1 0.4-6.3 1.3-8 2 5 2 11.9-1.3 29.9 10 24.9 15.3 31.3 26.1 40 39 9.3 13.6 12.6 31.2 14.6 52.8 2 20.4-4.9 35.5-7.6 46.8-1.1 4.6-3.7 8.8-5.4 13.2-0.5 1.2-0.6 3-0.1 4.1 4.3 8.9 8.5 18 13.5 26.6 5 8.8 11.9 16.2 21.6 20.2 2.6 1.1 10.4-0.8 11.9-3 0.6-0.9 0.4-2.6 0.1-3.9-1.1-4.7 0.1-6.9 4.8-7.8 2.4-0.5 4.9-0.6 7.4-0.8 5.2-0.5 10.5-0.8 15.6-1.5 4.6-0.6 10.7-0.1 12.1 4.3 2.3 7.5 0.2 15.6 0 23.6-0.1 3.8-1.9 6.4-5.2 8-11.3 5.6-23 7.6-35.8 6.5-11.3-1-20.5-5.3-27.3-13.8-4.4-5.5-7.5-12.1-10.9-18.4-4.9-8.9-9.5-17.9-14.4-26.7-1.8-3.2-2.5-2.9-4.4 0-3.5 5.3-4.2 10.5-20.2 26.1-10.8 10.5-26.6 22.6-38 29.8-12.5 9.1-37 29.1-42.6 35-0.7 0.7-0.9 1.9-1 2.9-1.5 9.8-3.4 19.6-7.4 28.7-2.6 5.9-8.4 8.6-13.1 12.3-1.1 0.9-2.4 1.4-3.5 2.3-3.1 2.5-6.6 3-9.9 0.8-1.9-1.2-2.9-1.3-4.4 0.6-4.5 5.8-11 4.5-17.1 3.9-1.9-0.2-12.6 6.3-25.4 19.8-13.5 13.6-31.9 34.7-38.7 49.8-11.8 29.6-14.8 39.7-17.1 54.7-3.6 23.5 0.6 45.6 2.8 54.4 2.9 11.9 11.9 20.7 21.5 30.7 6.3 3.6 14.9 12.5 35.5 19.6 13.8 5.3 48 2 70.5-2.9 19-0.5 25 4.2 26.7 10.2 1.6 5.9 3.3 13.9 3.5 20 0.4 10.3 1.1 30.7-8.2 43.7-8.9 14.9-19.9 22-27.2 24.2-5.9 1.8-11.9 4-17.9 4.3-23.4 1.3-46.1-1.5-67.3-12.4-8.3-4.2-15-10.4-22-16.3-2.9-2.4-7.7-11.3-13.2-13.6M614.6 201.2 614.6 201.2 614.6 201.2 614.6 201.2c-1.9-1.1-3.7-2.9-5.2-2.7-2.5 0.3-2.6 3.1-2.9 5.2-0.8 5 1 9.4 3.4 13.6 2.1 3.6 14.1 3.7 15.7-0.1 1.3-3.1 1.4-6.9 1.6-10.4 0.1-0.8-1.4-2.2-2.4-2.5-0.8-0.2-2 0.8-2.9 1.4-1.4 0.9-2.6 2-4.2 3.2-1.2-4.9 0.5-7.5 4.6-8.4 0.9-0.2 1.7-1 2.6-1.6-0.9-0.6-1.7-1.6-2.7-1.8-3.9-0.8-6.3 1.4-7.8 4.1zm20.9 7.3c1.1 11.4-8.6 18.3-20.3 17.4-4.9-0.4-8.6-2.5-11-6.6-3-5.2-4-11-2.7-17 1.8-8.3 9.7-14.4 18.2-11.9 2 0.6 4.2 0.5 6.2 1.1 7 2.1 9.7 8.5 9.7 17M649 307.1c-1-1.1-1.8-1.8-2.5-2.6-0.7 0.7-2 1.7-1.9 2.1 0.4 1 1.4 1.8 2.2 2.7 0.6-0.6 1.2-1.2 2.1-2.2zm-10.7-2.2c0 0-0.3-0.8-0.5-1.6-0.9 0.3-2 0.5-2.6 1.1-0.8 0.7-1.3 1.8-1.6 2.8-1.9 5.8 1.4 11.4 7.5 13.1 2.9 0.8 6.2-0.8 6.9-3.2 0.6-2.1-0.9-3.6-4.4-4.6-2.6-0.8-5.4-4.2-5.2-7.6zm-13.5 5.2c-0.1-5.9 2.5-9.7 6.3-13.7 4-4.1 7.9-3.9 12.1-2.6 7.1 2.2 15.5 6.9 14.7 14.3 0 10.9-9.7 18.4-18.3 16.7-3-0.6-5.9-1.8-8.6-3.1-4.8-2.4-6.6-6.6-6.3-11.5M644.4 276.6c5.2 0 8.8-2.7 8.5-6.6-0.1-1.2-1.5-3.2-2.2-3.2-2.6 0.1-4.3-1.2-6.1-2.5-1.7-1.2-3.5-1.2-4.8 0.4-2.4 2.9-0.9 6.1 0 9.1 0.7 2.4 2.7 3 4.7 2.9zm-0.3-19.3c8.4 0.1 14 4.9 14 11.9 0 7.2-5.7 13.3-13.4 13.2-7.4-0.1-12.5-5.2-12.4-12.5 0.1-7.7 4.7-12.6 11.9-12.5"/>
<path class="w" d="M405.1 19.5c-0.6 0.3-1.6 4.7-14.7 7.4-12.8 2.7-21.8 6-31.2 14.4-2.2 2-3.2 8.7-2.9 11.5 0.7 6.4 1.4 12.8 2.1 19.2 0.1 0.8 0 1.6 0 3.3-0.8-1.2-1.4-1.7-1.5-2.3-1.8-5.9-4.3-11.8-5.3-17.9-1.5-9.4 0.4-17.4 9.8-23 7.3-4.4 9.9-5.5 17.9-8.2 2-0.7 14.5-3 16.7-3.2 0 0.3 9.1-1.5 9.1-1.2M363.2 143.7 363.2 143.7 363.2 143.7 363.2 143.7c-5.7 3.6-11.3 7.1-17 10.5-0.4 0.3-1.3 0.3-1.6 0-0.4-0.4-0.7-1.3-0.5-1.8 0.5-1.2 1.1-2.5 2.1-3.2 4-2.6 8.1-5 12.2-7.4 1.8-1.1 3.4-0.6 4.8 1.8M366.3 86.6c-0.9 0.9-1.5 1.6-2.1 2.2-0.5-0.9-1.2-1.7-1.3-2.6 0-0.7 0.8-1.4 1.3-2.2 0.6 0.8 1.2 1.5 2.1 2.6M614.6 201.2c1.4-2.7 3.8-4.9 7.8-4.1 1 0.2 1.8 1.2 2.7 1.8-0.9 0.5-1.6 1.4-2.6 1.6-4.1 0.9-5.8 3.5-4.6 8.4 1.5-1.2 2.8-2.2 4.2-3.2 0.9-0.6 2.1-1.6 2.9-1.4 1 0.3 2.4 1.7 2.4 2.5-0.2 3.5-0.3 7.3-1.6 10.4-1.6 3.8-13.6 3.7-15.7 0.1-2.4-4.1-4.2-8.6-3.4-13.6 0.3-2.2 0.4-4.9 2.9-5.2 1.5-0.2 3.3 1.6 5.2 2.7M638.3 305c-0.1 3.3 2.6 6.8 5.2 7.6 3.5 1 4.9 2.5 4.4 4.6-0.6 2.4-4 4-6.9 3.2-6.1-1.6-9.3-7.2-7.5-13.1 0.3-1 0.9-2.1 1.6-2.8 0.6-0.6 1.7-0.7 2.6-1.1 0.3 0.8 0.5 1.6 0.5 1.6M649 307.1c-1 1-1.5 1.6-2.1 2.2-0.8-0.9-1.8-1.7-2.2-2.7-0.2-0.4 1.2-1.4 1.9-2.1 0.7 0.8 1.5 1.5 2.5 2.6M644.4 276.6c-2 0.1-4-0.5-4.7-2.9-0.9-3-2.4-6.1 0-9.1 1.3-1.6 3.1-1.6 4.8-0.4 1.8 1.3 3.5 2.7 6.1 2.5 0.7 0 2.1 2 2.2 3.2 0.4 3.9-3.2 6.7-8.5 6.6"/>
<path class="b" d="M295.8 457.3c0.2-4.4 0.3-8.1 0.4-11.8 0.2-6 0.2-12.1 0.6-18.1 0.2-2.8 2.6-4.2 4.9-4.6 1.4-0.2 3 1.1 4.5 1.9 0.4 0.2 0.6 0.7 1.4 1.8 0.2-1.9 0.1-3.2 0.4-4.4 0.6-2.6 2-5 2.1-7.7 0.1-1.8-0.4-11.9 2.6-12.4 3.3-0.3 2.9 5.4 3.1 6.2 1 4.1 1.6 8.7 1.6 12.8-0.1 5.1-1.2 10.2-2.2 15.3-0.3 1.6-1.8 3.4-3.3 4.3-1.8 1.1-2.3 2.5-2.5 4.4-0.3 4-0.7 7.9-1.2 11.9-1.3 10.5-11.7 13.7-19.3 11-0.4-0.2-0.9-0.2-1.7-0.4-0.4 1.3-0.7 2.5-1 3.7-1.6 5.5-2.7 11.2-4.8 16.6-2.1 5.4-6.5 8.3-12.5 8.6-11.8 0.6-19.1-5.9-24.1-15.3-1.5-2.9-3.2-5.7-4.7-8.6-5.6-10.6-6.2-22.1-5.3-33.7 0.5-6.6 0.6-13.5 2.4-19.8 1.6-5.7 5-11 8.1-16.1 1-1.6 4-3.2 5.5-2.8 2.5 0.6 1.4 3.6 1.1 5.5-1.1 6.6-2.9 13.1-3.5 19.7-0.9 8.6-1.8 17.4-1 25.9 1 10.7 3.7 21.2 11.2 29.7 2.1 2.4 4.5 4.8 8.1 4.3 1.2-0.2 2.5-1 3.2-1.9 3.1-3.7 3.2-8.3 3.3-12.7 0.3-8.3 0.4-16.7 0.7-25.1 0.1-4.6 2.3-6.9 6.3-6.3 1.6 0.2 3.5 1.5 4.4 2.8 1.8 2.6 2.9 5.6 4.4 8.5 1.4 2.6 2.9 5.2 6.9 7M246.6 336.5 246.6 336.5 246.6 336.5 246.6 336.5c2.3-0.3 4.7-0.2 6.7-1.1 7.4-3.1 12.7-8.5 16.1-15.8 3.3-7.1 1.2-12.1-4-17.4-2.1-2.2-4.6-2.3-7.4-1.2-4.7 1.9-8.8 4.6-12.2 8.3-5.9 6.3-10.7 13.1-9.6 22.5 0.2 2.1 1 3.4 3.1 3.7 2.4 0.4 4.9 0.6 7.4 1zm32-23c0.7 6.3-0.7 13.5-4.2 20.4-4.2 8.4-11.6 11.8-20.1 13.1-8.5 1.3-16.3-1.6-23.4-6.2-2.8-1.8-4.2-4.6-4.4-8-0.4-5.1 1.1-9.9 3.1-14.4 5.6-12.9 14.2-23 28.3-27 3.1-0.9 6.7-0.8 10-0.4 6 0.9 10.1 5.4 10.7 11.5 0.3 3.2 0.1 6.5 0.1 11.1M205 577c0.7 5.8 6.9 10.5 12.7 9.4 0.8-0.1 1.7-0.7 2.1-1.4 2.4-3.8 2.8-8.4 1-12-2.5-5-6.6-9.2-13.1-9.5-2-0.1-3.2 2.8-3.1 5 0.1 1.7 0.2 6.6 0.4 8.5zm24.4 0.9c0.5 4.7-0.7 8.6-3 12.2-2 3.1-4.7 4.8-8.4 4.7-12-0.3-21.9-6.6-21-20.7 0.3-4.9 0.9-9.9 1.6-14.8 0.3-2.2 3.6-4.7 5.7-4.5 7.5 0.7 14.3 2.6 19.5 8.8 3.7 4.4 6.5 8.8 5.7 14.4M303.1 289.5c0 1-0.1 1.5 0 1.8 0.4 1.4 0.3 3.6 1.3 4.1 1.8 1.1 3.4-0.4 4.9-1.8 3.7-3.6 4.8-8.1 4.9-13 0-2.1-0.3-4.2-2.3-4.6-1.4-0.2-3.5 0.9-4.4 2.1-2.8 3.4-4.9 7.3-4.3 11.4zm-7.1 2.6c-0.4-5.8 0.8-11.3 5-15.4 2.8-2.7 6.4-5 10-6.6 3.9-1.7 9.1 2.8 9.6 7.8 0.8 8.7-1.5 16.3-7.9 22.5-3 2.9-10.4 3.9-13.6 1.4-1.4-1.1-2.3-3.1-2.9-4.9-0.5-1.4-0.1-3.1-0.1-4.7M216.3 608.7c-1 8.3-0.3 16.1 5 16.6 2.7-5.4 1.2-10.7-5-16.6zm-7.8 6.7c0.2-2 0.2-4 0.5-5.9 1.1-6.8 8.2-9.7 13.5-5.1 5.5 4.7 9 10.6 7.7 18.3-0.4 2.1-0.9 4.3-1.6 6.3-1.3 4-4 5.4-8.1 4.4-7-1.6-11.4-6.8-12-14.1-0.1-1.3 0-2.6 0-3.9 0 0-0.1 0-0.1 0M547.1 257.5c-0.3 1.8-0.1 3.8-0.8 5.4-1.5 3.5-3.3 7-5.4 10.2-0.7 1-2.8 1-4.3 1.5-0.2-1.4-1-3.2-0.5-4.2 2.6-4.9 5.1-10.1 10.1-13.1 0.3 0.1 0.6 0.2 0.9 0.3M433.9 345.2c-0.4-0.2-1.7-0.7-1.9-1.5-0.3-0.8 0.3-2 0.9-2.8 0.5-0.7 1.4-1 2.2-1.5 2.7-1.8 5.4-3.7 8.2-5.3 0.8-0.5 2.5-0.6 2.9-0.2 0.6 0.7 0.9 2.2 0.6 3.2-1.2 3.6-8.1 8.2-12.7 8.2M428.8 329.7c-1.6 0-3.1 0.1-4.7-0.1-0.7-0.1-1.6-0.6-1.8-1.1-0.2-0.6 0.3-1.8 0.8-1.9 4.8-1.5 9.6-2.8 14.5-4.1 0.4-0.1 1.6 0.6 1.6 0.9-0.1 0.9-0.3 2.2-0.9 2.6-3 1.7-9.4 4-9.5 3.7M442.9 358.8c-0.4-0.2-1.8-0.5-2.3-1.3-0.3-0.5 0.3-2.1 0.9-2.7 2.8-2.6 5.8-5 8.9-7.3 1.3-0.9 2.6-0.6 2.7 1.3 0.2 3.4-6.1 10.1-10.1 10.1M551.5 274.8c-1.6 1.6-3 3.5-4.9 4.8-1.7 1.2-3.7 0.5-4.5-1.4-0.8-2 0.9-2.9 2.5-3.3 2.1-0.5 4.2-0.7 6.3-1 0.2 0.3 0.4 0.6 0.5 0.9M405.9 119.9c-1.2-3.3-2.4-6.7-3.6-10 3.1-2.1 3.8-1.9 5.5 1.4 1.2 2.4 2.4 4.8 3.9 7.9-4.5 1.6-8.7 3.1-13.1 4.4-0.5 0.1-1.7-1.1-2.1-1.9-1.2-2.5-2.2-5.1-3.2-7.6-0.3 0.1-0.7 0.2-1 0.3 0.9 3.2 1.9 6.3 2.9 9.8-6.4 1.5-12.5 3.2-18.7 4.4-6.2 1.2-6.2 1.1-8.2-5-0.8-2.5-1.6-5.1-2.5-8.1 3.7 0 6.9 0.5 10-0.1 7.2-1.4 14.4-3.1 21.5-5 2.5-0.6 3.7 0 4.5 2.3 0.9 2.6 2.2 5 3.3 7.5 0.3-0.1 0.6-0.2 1-0.4M413.9 105.1c0.4 3.6-1.1 4.7-3.2 4.9-0.5 0-1-0.9-1.5-1.4 1.4-1 2.8-2.1 4.7-3.5"/>
<circle class="b" cx="410.7" cy="258" r="20.6"/><circle class="b" cx="505.1" cy="223" r="19"/>
<path class="ge1" d="M14 427l73 59 0 65 80 40 140 19 60-10 95-50-7-50 112-78-13 60 20 5-65 90-7 35-100 58-130 20-100-10-100-44-20-16 0-63-35-25 18-23 3-32z"/>
<path class="ge2" d="M62 523l23 4 0 15-15-6zM461 523l34-15 0 7-10 10-21 11z"/>
<path class="ge3" d="M63.5 524.4c5.3 7.6 11.7 12.7 20.2 16.1 0-4.7 0-8.8 0-12.6-6.5-1.1-12.9-2.3-20.2-3.5zM493.9 513.3c-0.4-0.3-0.9-0.8-1.3-0.7-5.9 0.6-11.3 2.7-16.7 5.1-3.6 1.6-7.1 3.5-10.8 5-1.7 0.7-2.5 1.6-2.2 3.4 0.5 2.6 1 5.3 1.6 8.6 3.2-1.9 6.2-3.6 9-5.5 3.9-2.7 7.3-6.1 12.1-7.3 1-0.3 1.9-1.3 2.7-2.2 1.8-2 3.6-4 5.7-6.3zM47.3 549c0.2-0.8 0.3-1.4 0.4-1.9 0.2-5.2 0.4-10.3 0.6-15.5 0.1-4.4 1.3-5.8 5.7-6.8 0.7-0.1 1.2-0.8 1.8-1.3 2.5-2.3 4.4-5.7 8.4-5.6 3.4 0 6.8 0.4 10.2 0.7 2.5 0.2 5 0.7 7.5 1 1.9 0.2 2.9-0.6 2.9-2.7 0-2.7 0.3-5.4 0.5-8.2 0.2-3.2 0.9-6.4 0.5-9.5-0.5-4.1-0.1-9-5.6-10.8-0.1 0.6 0 1.2-0.2 1.8-0.3 1-0.8 1.9-1.2 2.8-0.4-1-1.2-1.9-1.1-2.9 0.2-3.4-0.7-6.3-2.9-8.9-1.5-1.7-2.7-3.6-4.3-5.1-8.1-7.4-16.3-14.8-24.6-22-5.8-5-12.1-9.5-18.1-14.3-2.9-2.3-5.7-4.7-9.1-7.4 4.2 6.6 7.9 12.5 11.7 18.3 6 9.3 9.9 19.4 13.3 29.9 0.5 1.4-0.2 4.4-1.1 4.8-2 0.9-1.9 2.1-1.9 3.7-0.1 1.4-0.2 2.7-0.4 4.1-0.8 5.2-1.6 10.4-2.6 15.5-1.2 5.7-3.1 11.2-7.9 14.8-5 3.8-4.7 9.3 0.8 12.4 2.5 1.4 4.8 3.2 7.1 4.9 3.3 2.5 6.4 5.2 9.8 8zM459.6 510c1.9-0.7 3.4-1.8 5.1-1.9 6.7-0.4 12.4-3.5 17.8-7 3.9-2.5 7.8-2.2 12-1.6 1 0.2 2.1 0.1 3-0.1 3.9-0.8 6.8-0.7 7.7 4 0.3 1.7 1.4 3.3 1.6 5 1.5 11.6 3.1 23.1 4.2 34.7 0.5 5.8 0.1 11.7 0.1 17.5 0 0.9 0.1 1.8 0.2 3.5 2.6-3.3 4.4-6.3 6.9-8.7 4-3.9 4.3-8.1 2.9-13.2-1-3.7-1.6-7.6-2.1-11.5-0.1-0.9 0.7-1.9 1-2.9 0.9 0.7 1.9 1.3 2.7 2.1 0.2 0.2 0.2 0.7 0.2 1.1 0.9 4.7 1.8 9.3 2.8 14.3 2-2.5 4.2-4.8 5.9-7.5 1.4-2.2 1.8-5.2 3.6-7 2.3-2.4 3.4-5.3 5.1-7.9 6.5-9.9 13-19.9 21.8-28.2 2.1-2 4.2-3.9 6.8-6.5-1.2 0.2-1.6 0.4-2 0.3-3.3-0.1-6.7 0.3-9.7-0.6-4.2-1.2-5.3-5.3-6.1-9.2-0.2-1-0.8-2.2-1.6-2.7-1.7-1.2-1.4-2.4-0.7-4 1-2.2 1.7-4.5 2.3-6.8 0.7-2.6 0.9-5.4 1.6-8 1.1-4.4 2.4-8.7 3.7-13 0.9-2.9 1.9-5.8 2.9-8.8 0.8-2.3 1.7-4.7 2.6-7-5.1 3-9.7 5.9-14 9.2-5.4 4.1-10.6 8.4-15.8 12.7-0.6 0.5-0.9 1.6-0.9 2.5 0 3.5 0.4 7 0.4 10.5 0 1.1-0.7 2.2-1.1 3.2-0.3-0.1-0.5-0.2-0.8-0.3-0.7-4.1-1.5-8.2-2.2-12.5-4.9 2.6-5.4 3.8-4.6 8.8 0.7 4.3 1.2 8.7 1.6 13 0.1 0.8-0.8 1.7-1.2 2.6-0.3-0.1-0.7-0.2-1-0.3-1.1-5.6-2.3-11.1-3.5-16.9-4.7 4-9.1 8.1-13.9 11.8-5.1 4-10.3 7.8-15.8 11.3-6 3.8-12.2 7-18.4 10.5-1.7 1-3.3 2.5-5.1 2.7-3.7 0.3-6.1 2.4-8.6 4.6 0.8 2.7 1.6 5.3 2.5 8zm-10.5 52.8c-3.3 1.7-6.2 3-9 4.5-6.9 3.8-13.6 8.2-20.7 11.5-8.5 3.9-17.3 7-26 10.5-0.8 0.3-1.4 0.9-2.1 1.4-1 0.8-1.9 1.7-3 2.4-1.1 0.6-2.4 0.8-3.5 1.5-7.6 4.4-15.8 7.2-24.3 9.2-6.3 1.5-12.8 2.4-19.1 4.2-7.1 2.1-14.3 3.1-21.7 2.9-3.1-0.1-6.2 0.8-9.2 1.4-8.4 1.6-16.9 2.1-25.3 0.2-5.8-1.4-11.6-2.5-17.6-2.3-3.9 0.1-7.7-0.8-11.6-1-2.1-0.2-5.5-1.9-5.7-0.9-2.8-0.5-5.3-1.1-7.9-1.5-5.8-0.7-11.6-1.3-17.4-2-7.5-0.9-15.1-1.9-22.6-2.8-4.3-0.5-8.6-0.4-12.8-1.5-10.6-2.6-21-5.7-31.5-8.7-2.4-0.7-5.2-1.2-7-2.8-4.7-4.2-10.4-6.3-16.1-8.7-15.3-6.6-30.6-13.3-45.9-19.9-3-1.3-5.9-2.7-8.9-4-0.4 1.1-0.7 1.9-1 2.7-0.3 0.1-0.6 0.1-0.9 0.2-0.1-3.1-1.1-5.4-4.3-6.2-0.5 5.1 0.2 10.4-2.3 15.3-0.8-1.3-1.3-2.6-1.4-3.9-0.1-3.4-0.5-6.9 0-10.3 0.8-5-2-7-5.8-8.8-1.9-0.9-3.2-0.3-4.4 1.1-3.6 4.2-3.1 9.2-2.5 14.2 0.3 2.5 1.2 5 1.3 7.6 0.1 2.2-0.3 4.5-0.5 6.7-0.5 5-1.1 10.1-1.6 15.1-0.6 5.7-2.7 11.2-1.2 17 0.5 2 0.5 4.1 0.5 6.1-0.2 5.4 2 9.5 6.2 12.8 2 1.5 3.9 3.2 5.9 4.7 3 2.1 6.1 4 9.4 6.2 0.3-2.6 0.4-4.4 0.7-6.6 3 2.3-0.5 6.5 3.4 8.1 0.7-2.3 1.4-4.4 2-6.5 0.4 0 0.7 0 1.1 0 0.3 1.2 0.5 2.5 0.8 3.7 0.6 2.3-0.1 4.9 3.4 6.2 9.5 3.6 18.8 7.8 28.1 12 6.6 3 13 6.6 19.7 9.6 3.1 1.4 7.1 1.3 9.9 3.2 6.2 4.3 13.5 5.7 20.3 8 16.6 5.5 33.8 7.4 51.2 7.4 6.1 0 12.2 0.6 18.2-0.2 8.6-1.1 17.2-1.6 25.8-0.4 10.7 1.5 21.4 2.3 32.2 0.7 11.8-1.8 23.7-3.2 35.5-4.7 2.8-0.4 5.6-0.9 8.4-1.1 4.1-0.2 8.3 0.6 12.1-0.5 12.3-3.4 24.5-7.4 36.7-11.4 2.7-0.9 5.1-1.6 7.9-0.7 1.3 0.4 3.1 0.4 4.2-0.2 5.5-2.8 10.8-5.7 16.1-8.8 5.3-3.1 10.6-6.3 15.8-9.7 3.3-2.2 7.1-1.8 10.6-2.6 6.9-1.6 12.7-5.1 18.5-9 4.7-3.2 8.7-7.2 14.4-9.2 11.6-4.1 20.9-11.5 26.7-22.7 0.9-1.8 1.9-4.7 1.1-5.9-1.7-2.7-1.8-5.1-1.2-8 0.2-1.1 0.2-2.4-0.2-3.5-1.5-3.8-1.5-7.6-1.1-11.7 1.3-11.4 2.1-22.9 3-34.3 0.1-0.7-0.1-1.4-0.3-2-1.7-5.7-9.6-7.9-14.2-3.9-4.6 4-8.9 8.2-13.5 12.2-3.7 3.3-7.5 6.5-11.4 9.5-1.5 1.2-1.7 2.2-1.6 3.9 0.2 5.5 0.3 11.1 0.2 16.6 0 1-0.6 2-1 3-0.4 0-0.8-0.1-1.1-0.1-0.9-6.5-1.8-12.9-2.6-19.4-5.2 1.2-6.3 3.1-5.7 8 0.8 6.7 1.2 13.4 1.7 20.1 0.1 0.9-0.4 1.8-0.6 2.6-0.3 0-0.6-0.1-1-0.1-1.1-8.3-2.2-16.7-3.3-25.5zm123.8-152c3 2.4 2.4 5.9 1.6 8.7-4.1 13.4-8.4 26.7-13.2 39.9-2.2 6.2-1.7 12.5-1.6 18.8 0 0.8 2.6 2.5 3.6 2.2 7.9-2.3 15.7-4.6 23.3-7.6 2.7-1.1 4.7-4 7-6.1 0.8-0.7 1.5-1.5 2.3-2.3 1.6-1.6 3.4-2.9 5.5-0.8 1.7 1.8 1.5 3.8 0 5.7-2.2 2.6-4.2 5.4-6.6 7.8-5.6 5.6-11.1 11.5-17.2 16.5-4.7 3.8-8.6 8.2-12.1 13-9.5 13.1-19.2 26-29 38.9-6.8 9-13.7 17.8-20.8 26.5-2.8 3.4-3 6.7-1.8 10.5 1.8 5.7 2.2 11.9 0.6 17.2-2 6.5-4 13.9-10.8 17.8-1 0.6-1.9 1.9-2.4 3.1-1.2 2.9-2.8 4.5-6.2 4-0.9-0.2-2.1 0.2-2.9 0.7-9.3 5.6-18.4 11.3-27.8 16.8-7.9 4.5-15.9 8.8-23.9 13-9.8 5.1-19.7 10-29.7 14.7-3.5 1.7-7.7 2-11.3 3.7-9.2 4.2-19.3 4.7-28.6 7.8-9.8 3.3-20 3.2-29.9 5.5-10.9 2.5-22 4.2-33 5.9-3.7 0.6-7.6 0.5-11.4 0.6-14.1 0.6-28.2 2.7-42.3 1.7-6.6-0.5-13.1-1.2-19.7-1.9-4.9-0.5-9.8-1-14.7-1.7-6.7-0.9-13.4-2-20-3.1-9.1-1.5-18.3-2.8-27.4-4.6-6.9-1.4-13.8-3.1-20.4-5.5-11.1-4.1-22.2-8.5-32.9-13.5-9.7-4.5-18.9-10.1-28.3-15.2-2.7-1.5-5.5-2.7-8-4-1.5-1.4-2.8-3-4.4-4-8.6-4.8-17.5-9-24.3-16.3-4.1-4.4-6.9-9.1-6.6-15.7 0.5-15.7 0.1-31.4 0.2-47 0-1.8-0.6-2.6-2.1-3.6-5.9-4.1-11.5-8.5-17.2-12.9-1.4-1.1-2.7-2.2-4.2-3.4-1.6 2-2.7 1.1-4.3-0.3-1.6-1.4-4.1-1.7-5.8-3-4.8-3.5-9.4-7.2-14-10.8 0-2.2 0-4.3 0-6.5 1.7-2.4 3.7-2.6 6.1-0.8 4.5 3.4 10.2 2.6 13.6-1.7 1.8-2.2 3.8-4.4 5.9-6.3 0.7-0.6 1.9-0.6 3.5-1.1 1-6.9 2.1-14.2 3.1-21.4 0.6-4.2 1.4-8.5 1.7-12.7 0.3-4.4-1.1-8.5-3.6-12.3-4.8-7.2-9.3-14.7-13.9-22.1-3.3-5.3-6.8-10.6-10.1-15.9-0.7-1.1-1.4-2.4-1.6-3.7-0.1-1.1 0.3-2.9 1-3.2 1.3-0.6 3.5-1 4.4-0.3 2.1 1.6 4.5 1.5 6.6 2.4 4 1.5 7.7 3.9 11.2 6.3 5.8 4.1 11.3 8.4 16.8 12.9 6.6 5.4 13.4 10.6 19.6 16.5 6.1 5.8 11.6 12.3 17.3 18.5 0.3 0.3 0.5 0.8 0.8 0.8 4.4 0.4 5.5 4.2 6.7 7.3 2 5.5 4 11.2 5 16.9 0.9 5.5 0.6 11.3 0.7 16.9 0 2.8 0.9 5.9-2 8.1-0.5 0.4-0.2 1.7-0.3 2.5-0.3 5.4-0.5 10.9-0.8 16.7 5.1 2.7 10.6 5.6 16 8.6 3 1.7 5.8 3.9 8.9 5.5 6.3 3.2 11.9 7.3 17.7 11.4 3.5 2.5 8.3 3.4 12.6 4.7 8.3 2.6 16.6 5.1 24.9 7.4 11.1 3.1 22.3 6.2 33.5 8.8 6.8 1.5 13.6 3.1 20.7 2.9 12-0.4 23.6 2.3 35.4 4.3 7.3 1.2 14.4 3.7 22 3.3 7.8-0.4 15.6-0.5 23.4-0.6 2.7 0 5.5 0.8 8.1 0.5 6.9-0.8 13.8-2 20.6-3.1 5.6-0.9 11.4-1.4 16.8-3 6.3-1.8 12.3-4.5 18.4-7 6.5-2.7 12.7-6.4 19.4-8.3 9.6-2.7 17.7-8.2 26.3-12.6 4.9-2.5 9.7-5.2 14.7-7.5 7.6-3.4 13.7-9 20.3-14 1.6-1.2 2.8-3 4.2-4.5 1.9-2 0.6-4.3 0.5-6.5-0.1-3.2-0.7-6.3-1.1-9.5-0.3-2.1-0.6-4.2-3.6-3.8-0.7 0.1-1.5-0.5-2.2-0.8 0.5-0.6 0.9-1.2 0.9-1.2-1.3-10-2.4-19.5 1.6-29.1 2.5 1.7 3.7 0.4 5.1-1.1 2.8-3 5.6-6 9.8-7 0.2 0 0.3-0.3 0.5-0.3 8-0.1 13.5-5.4 19.4-9.5 12.4-8.6 23.8-18.6 36.4-26.8 7.1-4.6 12.5-11 19.4-15.7 4.1-2.8 8-5.8 11.9-8.8 1.3-1 2.6-2 3.9-3.1 3.5-3 7-6.1 10.5-9.2 1.4 0 2.7 0 4.1 0"/>
<path class="r" d="M385.3 639.7c0.1-0.2 0-0.7-0.2-1.1-1.6-3.6-3.3-7.2-5-11-4.5 1.6-6.9 5.4-8.8 9.3-2.6 5.3-2.2 11-0.1 16.5 1.1 2.8 2.5 2.8 5 1.1m13.4-7.1c-1.2 6.6-6.1 10-10.2 14.1-0.5 0.5-1.3 0.8-2 0.9-7.3 0.8-15.2-3-14.9-12.1 0.3-10.2 4.5-18.1 12.5-24.3 2.7-2.1 3.3-4.4 1.8-6.7-1.4-2-4.2-2.3-7-0.9-2.5 1.3-5.1 2.7-7.7 3.7-1.1 0.4-3 0.2-3.6-0.5-0.6-0.7-0.4-2.5 0-3.6 0.4-1.3 1.4-2.4 2.3-3.4 3.7-4.2 10.9-5.2 15.3-1.5 7.3 6.1 13.3 13.2 16.1 22.8 1 3.4 3.1 6.7 5.3 9.6 2.4 3.2 7.8 3.6 11.5 1.5 0.7-0.4 1.4-0.8 2.1-1.2 2 3.5 0 7.7-3.7 8.4-5.4 1-10.3 0.2-14.3-3.9-0.9-1-2.1-1.8-3.4-2.8M148.9 606.1 148.9 606.1 148.9 606.1 148.9 606.1c3.2 6.5 6.2 12.6 9.4 19.2 2.6-5 4.9-9.4 7.3-14-0.6-0.3-1.4-0.5-1.8-1-0.5-0.6-1-1.4-1-2.1 0-0.5 0.9-1.2 1.5-1.3 3.2-0.7 6.3-0.6 9.1 1.1 0.9 0.5 1.3 1.7 1.9 2.5-0.5 0.5-0.6 0.6-0.7 0.6-4-0.5-4.8 2.6-6.1 5.3-5.9 13-11.8 26-17.6 39-1.6 3.7-4.1 5.1-7.9 5.4-6.8 0.6-11.4-3.5-11.7-10.2-0.1-2.6-0.5-5.1 1.3-7.4 1.7-2.1 2.9-2 4.8-0.1 2.6 2.5 2.7 4.9 1.3 8-0.4 0.8 0.3 2.8 1.1 3.5 0.9 0.7 2.7 0.8 3.7 0.4 1.3-0.5 2.2-1.9 3.1-3 0.5-0.5 0.8-1.3 1.1-1.9 5.6-11.5 5.6-11.5 1-23.4-2.9-7.4-6.1-14.7-9.2-22.1-0.3-0.8-1.2-1.3-1.6-2.1-0.4-0.7-1-1.7-0.8-2.2 0.3-0.6 1.4-1.3 2.1-1.2 5.1 0.6 10 1.9 14.2 5.1 0.4 0.3 0.7 1.3 0.5 1.6-0.3 0.5-1.1 1.1-1.7 1.1-1 0.1-2-0.3-3.6-0.5M266.8 648.6c-3 2.7-5.9 5.3-8.7 7.9-0.8 0.8-1.5 1.6-2.1 2.6-1.2 1.9-0.9 4.9 0.9 6.4 1.9 1.6 4 0.9 5.6-0.5 1.4-1.3 2.4-3 3.4-4.7 2.3-3.8 0.9-7.9 1-11.7zm2.3 12.6c-0.7 1.6-1.3 2.5-1.5 3.4-0.9 4.9-7.8 8-12.7 7-2.5-0.5-5.6-5.3-5.6-8.6 0-3.8 1.1-7.1 4.3-9.5 2.9-2.2 5.7-4.7 8.5-7.1 1.8-1.5 1.5-3.3 0.7-5.3-0.8-1.9-2.2-2.5-4-2.3-0.8 0.1-1.5 0.9-2.2 1.4-0.1 0.1-0.2 0.3-0.2 0.5-1.1 1.9-2.7 3.3-5 2.6-1-0.3-2.2-1.5-2.5-2.5-0.5-2.2 0.6-3.9 2.6-5 6.6-3.7 20.6-0.4 22.2 9.8 0.4 2.3 0.5 4.6 1.1 6.8 0.9 3.2 1.7 6.4 3.2 9.3 0.8 1.5 3.2 2 4.6 3.2 1 0.8 2.5 2.3 2.2 2.9-0.7 1.7-1.9 3.4-3.4 4.4-1.3 0.9-4.8-1.5-5-1.5-3.3-2.1-5.4-4-6.6-7.7-0.1-0.4-0.3-0.8-0.8-1.8M315.4 662.4c-1.5 2.2-2.7 4.4-4.4 6.1-1.1 1.1-3 2-4.5 1.9-3.5-0.2-6.5-2-8.4-4.9-1.9-2.9-3.9-6.1-4.7-9.4-1.1-4.8-4.1-8.2-6.6-12.1-1.2-1.9-1.1-2.8 1-3.2 4.1-0.9 6.1-0.1 7.5 3.8 1.3 3.5 1.8 7.4 3 10.9 0.9 2.6 2.2 5.2 3.9 7.4 1.4 1.9 3.7 2.7 6 1.5 2.4-1.2 3.6-3.6 3.4-6.3-0.3-4.2-0.7-8.5-1.4-12.7-0.3-1.9-1.1-3.8-2.1-5.5-0.8-1.5-0.2-2.2 0.9-2.6 1.2-0.4 2.5-0.7 3.8-0.7 1.6 0 4.2-0.5 2.2 2.7-0.4 0.6-0.1 1.9 0.2 2.7 2.8 7.2 4.3 15 9.7 21.1 0.8 0.9 1.4 2 2.3 2.7 1.9 1.7 1 2.6-0.8 3-2.2 0.6-4.5 0.9-6.8 1.1-0.5 0-1.7-1.1-1.7-1.2 1.3-3.2-1.4-4.6-2.7-6.6M185.5 668.1c-4.3 1.3-7.6-0.2-10.8-1.6-1.4-0.6-0.8-1.7 0.2-2.7 2.6-2.7 4.1-5.9 4.8-9.8 1.7-9.4 4.1-18.6 5.5-28 0.7-4.7 1.6-9.7-1.1-14.3-0.7-1.2-0.1-2.2 1.4-2.3 2.2-0.1 4.5-0.3 6.6 0.1 1.5 0.3 2.9 1.5 2.2 3.5-5.1 13.9-5.8 28.8-9.4 43.1-0.9 3.8-1.8 7.8 0.6 12M351.5 664.9c0.7-1.2 1.3-2.4 2-3.6 0.3 0.1 0.7 0.2 0.8 0.3 1 1.8-0.8 7.3-2.7 8.3-2.1 1.2-5.5 0-6.9-2.5-3.5-6.3-6.2-12.8-7.1-20-0.2-1.7-0.6-3.4-0.9-5.2-1.9 0.7-3.5 1.4-5.2 1.7-0.8 0.2-2.4-0.1-2.6-0.6-0.3-0.9-0.2-2.2 0.3-3 1.4-2.2 3.2-4 4.7-6.2 0.6-1 1.1-2.3 1.1-3.4-0.3-3.3-1-6.6-1.2-9.9-0.1-1 0.8-2 1.3-3 0.6 0.8 1.4 1.6 1.6 2.4 1 3.8 1.8 7.7 2.7 11.6 4.1-0.2 8-0.4 12-0.5 0.1 0.4 0.2 0.8 0.3 1.2-1.9 1.3-3.8 2.9-5.8 4-6.5 3.6-5.4 2.4-3.9 8.8 1 4.2 2.1 8.5 3.7 12.5 1.1 2.7 3.2 5 4.8 7.5 0.4-0.1 0.7-0.2 1.1-0.4M239 669.6c-0.5 1.5-1 2.7-3.1 1.8-1.1-0.4-2.5 0.1-3.8 0.3-2.6 0.2-3.6-0.9-2.7-3.3 2.2-5.5 2.7-10.9 2.1-16.8-0.7-7.7-0.5-15.6-0.6-23.4 0-3.8-0.9-7.3-3.4-10.3-1.5-1.7-0.9-2.7 1.2-2.8 0.1 0 0.2 0 0.3 0 7.8-0.6 9.4 1.7 7.6 10.7-0.5 2.8-0.6 5.7-0.6 8.5-0.1 8.8-0.2 17.6 0.1 26.4 0.1 3.1 1.4 6.1 2.1 9.1 0.3-0.1 0.5-0.1 0.8-0.2M208 670.6c-1.5 0-3.1 0.3-4.4-0.1-1.2-0.4-2.5-1.5-3.1-2.6-0.3-0.6 0.6-2 1-3 1.1-2.9 2.6-5.7 3.2-8.7 0.5-2.4 0.1-5-0.4-7.5-0.2-1-1.3-1.9-2-2.8-0.6-0.8-1.2-1.7-1.8-2.5 0.9-0.3 1.7-0.8 2.6-0.8 2.3 0 4.6 0.2 6.9 0.4 3.2 0.2 3.9 1.4 3.4 4.5-0.8 5-1.6 10-2 15.1-0.1 1.6 1.2 3.3 1.8 4.9 0.3 0.8 0.7 1.6 1.1 2.4-0.8 0.3-1.7 0.7-2.5 0.7-1.3 0.1-2.6 0-3.9 0 0 0 0-0.1 0-0.1M209.2 623.7c2.3 0 4.9 2.9 4.9 5.5 0 2.9-2 4.9-4.6 4.9-2.9 0-5.2-2.1-5.3-4.7-0.1-2.9 2.4-5.7 4.9-5.8"/>
</svg>